<svg class="basket__link-icon-1" xmlns="http://www.w3.org/2000/svg" width="17" height="16" fill="none"><path d="M16.302 2.913H3.01L2.812.653A.706.706 0 002.117 0H.698A.708.708 0 000 .717c0 .396.313.717.698.717h.78l.803 9.186c.057.663.406 1.38 1.006 1.87C2.205 13.907 3.193 16 4.954 16c1.46 0 2.49-1.496 1.99-2.913h3.821c-.5 1.415.528 2.913 1.99 2.913 1.167 0 2.117-.975 2.117-2.174 0-1.198-.95-2.173-2.117-2.173H4.958c-.53 0-.992-.329-1.192-.807l11.158-.674a.703.703 0 00.636-.542l1.419-5.826c.11-.452-.223-.89-.677-.89zM4.954 14.566a.731.731 0 01-.72-.74c0-.407.322-.74.72-.74.397 0 .72.333.72.74 0 .408-.323.74-.72.74zm7.801 0a.731.731 0 01-.72-.74c0-.407.323-.74.72-.74.397 0 .72.333.72.74a.73.73 0 01-.72.74zm1.575-5.794L3.578 9.42l-.443-5.074h12.272L14.33 8.772z" fill="#FF3D3D"/></svg>