<svg width="22" height="22" fill="none" xmlns="http://www.w3.org/2000/svg"><defs><clipPath id="a"><path fill="#fff" fill-opacity="0" d="M0 0h22v22H0z"/></clipPath></defs><path d="M0 0h22v22H0z"/><g clip-path="url(#a)" fill="#757575"><path d="M21.083 17.417h-2.44a3.202 3.202 0 00-3.06-2.292c-1.448 0-2.66.97-3.059 2.292H.917a.917.917 0 000 1.833h11.607a3.202 3.202 0 003.06 2.292c1.448 0 2.66-.971 3.058-2.292h2.441a.916.916 0 100-1.833zm-5.5 2.291a1.377 1.377 0 01-1.375-1.375c0-.758.617-1.375 1.375-1.375s1.375.617 1.375 1.375-.617 1.375-1.375 1.375zm5.5-16.958h-2.44c-.399-1.32-1.611-2.292-3.06-2.292-1.448 0-2.66.971-3.059 2.292H.917a.917.917 0 000 1.833h11.607c.398 1.321 1.611 2.292 3.06 2.292 1.448 0 2.66-.97 3.058-2.292h2.441a.916.916 0 100-1.833zm-5.5 2.292a1.377 1.377 0 01-1.375-1.375c0-.758.617-1.375 1.375-1.375s1.375.617 1.375 1.375-.617 1.375-1.375 1.375zm5.5 5.041H9.476c-.398-1.32-1.611-2.291-3.06-2.291-1.448 0-2.66.97-3.058 2.291H.917a.917.917 0 000 1.834h2.44c.399 1.32 1.611 2.291 3.06 2.291 1.448 0 2.66-.97 3.059-2.291h11.607a.916.916 0 100-1.834zM6.417 12.375A1.377 1.377 0 015.042 11c0-.758.617-1.375 1.375-1.375s1.375.617 1.375 1.375-.617 1.375-1.375 1.375z"/></g></svg>