<svg width="16.199463" height="16.200439" viewBox="0 0 16.1995 16.2004" fill="none" xmlns="http://www.w3.org/2000/svg" xmlns:xlink="http://www.w3.org/1999/xlink">
    <desc>
        Created with Pixso.
    </desc>
    <defs/>
    <path id="Vector" d="M10.8182 1.85352C8.34686 -0.61792 4.32452 -0.61792 1.85315 1.85352C-0.617737 4.32544 -0.617737 8.34717 1.85315 10.8191C4.05396 13.0195 7.48163 13.2551 9.95135 11.5371C10.0034 11.783 10.1223 12.0176 10.3135 12.2087L13.9127 15.8079C14.4371 16.3313 15.2847 16.3313 15.8065 15.8079C16.3304 15.2839 16.3304 14.4365 15.8065 13.9141L12.2074 10.314C12.0172 10.1243 11.782 10.0049 11.5361 9.95288C13.2553 7.48267 13.0196 4.05542 10.8182 1.85352ZM9.68188 9.68286C7.83679 11.5278 4.83398 11.5278 2.98944 9.68286C1.14539 7.83765 1.14539 4.83545 2.98944 2.99048C4.83398 1.14575 7.83679 1.14575 9.68188 2.99048C11.527 4.83545 11.527 7.83765 9.68188 9.68286Z" fill="#FFFFFF" fill-opacity="1.000000" fill-rule="nonzero"/>
</svg>
