<?xml version="1.0" encoding="utf-8"?><svg viewBox="0 0 800 800" xmlns="http://www.w3.org/2000/svg" xmlns:xlink="http://www.w3.org/1999/xlink"><style>:root>svg{display:none}:root>svg:target{display:block}</style><svg version="1.0" viewBox="0 0 64 64" id="svg" xmlns="http://www.w3.org/2000/svg"><g fill-rule="evenodd" clip-rule="evenodd"><path d="M32.003 16.003c-8.837 0-16.001 7.165-16.001 16.001s7.165 16.001 16.001 16.001 16.001-7.164 16.001-16.001-7.164-16.001-16.001-16.001zm0 24.003a8.005 8.005 0 0 1-8.001-8.001 8 8 0 0 1 8.001-8.001 8 8 0 0 1 8.001 8.001 8.005 8.005 0 0 1-8.001 8.001zm-20.002-8.009c0-2.211-1.789-4-4-4H4c-2.211 0-4 1.789-4 4s1.789 4 4 4h4a3.998 3.998 0 0 0 4.001-4zm.203 14.142-2.832 2.829a4 4 0 0 0 5.657 5.656l2.833-2.828a4 4 0 1 0-5.658-5.657zm19.799 5.86c-2.211 0-4 1.789-4 4V60c0 2.211 1.789 4 4 4s4-1.789 4-4l-.004-4.001a3.994 3.994 0 0 0-3.996-4zm19.795-5.86a3.996 3.996 0 0 0-5.653 0 4 4 0 0 0 0 5.657l2.829 2.828c1.562 1.57 4.094 1.562 5.656 0s1.566-4.094 0-5.656l-2.832-2.829zm8.208-18.142-4.009.008a3.984 3.984 0 0 0-3.992 3.992 3.99 3.99 0 0 0 3.992 4h4.001c2.219.008 4-1.789 4-4a3.988 3.988 0 0 0-3.992-4zm-8.208-10.142 2.828-2.829a3.99 3.99 0 0 0 0-5.657 3.993 3.993 0 0 0-5.652 0l-2.829 2.836a3.99 3.99 0 0 0 0 5.649c1.554 1.572 4.094 1.564 5.653.001zm-19.795-5.86c2.207.016 4-1.789 4-3.992v-4c0-2.219-1.789-4-4-4a3.986 3.986 0 0 0-4 3.993l.008 4.008a3.984 3.984 0 0 0 3.992 3.991zm-19.791 5.86a3.98 3.98 0 0 0 5.646-.008c1.574-1.547 1.566-4.086.008-5.649L15.037 9.37a3.999 3.999 0 0 0-5.657 0 3.988 3.988 0 0 0-.012 5.657l2.844 2.828z" fill="#394240"/><path fill="#F9EBB2" d="M39.996 31.997a8 8 0 0 0-8.001-8.001 8 8 0 0 0-8.001 8.001c0 4.414 3.583 8.001 8.001 8.001s8.001-3.587 8.001-8.001z"/></g></svg></svg>